<svg width="27" height="29" viewBox="0 0 27 29" fill="none" xmlns="http://www.w3.org/2000/svg">
<path d="M23.985 11.5396L21.8588 10.7783L22.86 8.62749C22.9615 8.40236 22.9955 8.14895 22.9572 7.90222C22.9189 7.65549 22.8102 7.4276 22.6463 7.24999L20.25 4.67624C20.0838 4.49751 19.8696 4.37924 19.6375 4.33806C19.4054 4.29688 19.1672 4.33486 18.9563 4.44666L16.9538 5.52208L16.245 3.23833C16.1702 3.00028 16.0281 2.79321 15.8385 2.64594C15.649 2.49867 15.4214 2.41853 15.1875 2.41666H11.8125C11.5767 2.41601 11.3466 2.49498 11.1548 2.64243C10.963 2.78987 10.8192 2.99833 10.7438 3.23833L10.035 5.52208L8.0325 4.44666C7.8229 4.33764 7.58696 4.30118 7.35725 4.3423C7.12753 4.38343 6.91536 4.50011 6.75 4.67624L4.35375 7.24999C4.18735 7.42854 4.07724 7.65862 4.0389 7.90788C4.00055 8.15713 4.03591 8.41303 4.14 8.63958L5.14125 10.7904L3.015 11.5517C2.79337 11.6321 2.60058 11.7847 2.46347 11.9882C2.32636 12.1918 2.25174 12.4362 2.25 12.6875V16.3125C2.24939 16.5658 2.32293 16.8129 2.4602 17.0189C2.59748 17.2249 2.79156 17.3793 3.015 17.4604L5.14125 18.2217L4.14 20.3725C4.03851 20.5976 4.00456 20.851 4.04284 21.0978C4.08113 21.3445 4.18976 21.5724 4.35375 21.75L6.75 24.3237C6.91624 24.5025 7.13045 24.6207 7.36252 24.6619C7.59458 24.7031 7.83283 24.6651 8.04375 24.5533L10.0463 23.4779L10.755 25.7617C10.8305 26.0017 10.9743 26.2101 11.166 26.3576C11.3578 26.505 11.5879 26.584 11.8238 26.5833H15.1988C15.4346 26.584 15.6647 26.505 15.8565 26.3576C16.0482 26.2101 16.192 26.0017 16.2675 25.7617L16.9763 23.4779L18.9788 24.5533C19.187 24.6596 19.4207 24.6946 19.648 24.6535C19.8754 24.6124 20.0855 24.4973 20.25 24.3237L22.6463 21.75C22.8127 21.5714 22.9228 21.3414 22.9611 21.0921C22.9995 20.8429 22.9641 20.587 22.86 20.3604L21.8588 18.2096L23.985 17.4483C24.2066 17.3679 24.3994 17.2153 24.5365 17.0117C24.6736 16.8082 24.7483 16.5637 24.75 16.3125V12.6875C24.7506 12.4342 24.6771 12.1871 24.5398 11.9811C24.4025 11.7751 24.2085 11.6206 23.985 11.5396ZM22.5 15.4425L21.15 15.9258C20.8396 16.034 20.5548 16.2134 20.3153 16.4516C20.0759 16.6898 19.8876 16.9811 19.7634 17.3052C19.6392 17.6294 19.5822 17.9787 19.5963 18.3289C19.6104 18.6791 19.6953 19.0219 19.845 19.3333L20.4863 20.7108L19.2488 22.04L18 21.315C17.7115 21.1606 17.3955 21.0746 17.0734 21.0628C16.7512 21.051 16.4305 21.1137 16.1329 21.2466C15.8352 21.3795 15.5677 21.5795 15.3483 21.8332C15.1289 22.0868 14.9628 22.3881 14.8613 22.7167L14.4113 24.1667H12.6225L12.1725 22.7167C12.0718 22.3832 11.9048 22.0773 11.683 21.8201C11.4612 21.563 11.19 21.3607 10.8882 21.2273C10.5864 21.094 10.2612 21.0328 9.93513 21.0479C9.60908 21.063 9.28999 21.1542 9 21.315L7.7175 22.0037L6.48 20.6746L7.155 19.3333C7.30473 19.0219 7.38959 18.6791 7.40368 18.3289C7.41777 17.9787 7.36076 17.6294 7.23661 17.3052C7.11246 16.9811 6.92413 16.6898 6.68469 16.4516C6.44526 16.2134 6.16044 16.034 5.85 15.9258L4.5 15.4425V13.5575L5.85 13.0742C6.16044 12.966 6.44526 12.7866 6.68469 12.5484C6.92413 12.3102 7.11246 12.0189 7.23661 11.6948C7.36076 11.3706 7.41777 11.0213 7.40368 10.6711C7.38959 10.3208 7.30473 9.97813 7.155 9.66666L6.51375 8.32541L7.75125 6.99624L9 7.68499C9.28999 7.84582 9.60908 7.93696 9.93513 7.95209C10.2612 7.96723 10.5864 7.90599 10.8882 7.77264C11.19 7.63929 11.4612 7.43702 11.683 7.17984C11.9048 6.92267 12.0718 6.61676 12.1725 6.28333L12.6225 4.83333H14.3775L14.8275 6.28333C14.9282 6.61676 15.0952 6.92267 15.317 7.17984C15.5388 7.43702 15.81 7.63929 16.1118 7.77264C16.4136 7.90599 16.7388 7.96723 17.0649 7.95209C17.3909 7.93696 17.71 7.84582 18 7.68499L19.2825 6.99624L20.52 8.32541L19.845 9.66666C19.7013 9.97653 19.6212 10.316 19.6102 10.662C19.5992 11.0079 19.6576 11.3524 19.7813 11.6721C19.9051 11.9918 20.0913 12.2792 20.3274 12.5148C20.5636 12.7504 20.8441 12.9288 21.15 13.0379L22.5 13.5212V15.4425ZM13.5 9.66666C12.61 9.66666 11.74 9.95013 10.9999 10.4812C10.2599 11.0123 9.68314 11.7672 9.34255 12.6504C9.00195 13.5335 8.91284 14.5054 9.08647 15.4429C9.2601 16.3805 9.68869 17.2417 10.318 17.9177C10.9474 18.5936 11.7492 19.054 12.6221 19.2405C13.495 19.427 14.3998 19.3312 15.2221 18.9654C16.0443 18.5996 16.7471 17.9801 17.2416 17.1852C17.7361 16.3904 18 15.4559 18 14.5C18 13.2181 17.5259 11.9887 16.682 11.0823C15.8381 10.1759 14.6935 9.66666 13.5 9.66666ZM13.5 16.9167C13.055 16.9167 12.62 16.7749 12.25 16.5094C11.88 16.2438 11.5916 15.8664 11.4213 15.4248C11.251 14.9832 11.2064 14.4973 11.2932 14.0285C11.3801 13.5597 11.5943 13.1291 11.909 12.7912C12.2237 12.4532 12.6246 12.223 13.0611 12.1298C13.4975 12.0365 13.9499 12.0844 14.361 12.2673C14.7722 12.4502 15.1236 12.7599 15.3708 13.1574C15.618 13.5548 15.75 14.022 15.75 14.5C15.75 15.1409 15.5129 15.7556 15.091 16.2088C14.669 16.662 14.0967 16.9167 13.5 16.9167Z" fill="white"/>
</svg>
